<svg width="50" height="50" viewBox="0 0 50 50" fill="none" xmlns="http://www.w3.org/2000/svg"><path d="M25 43C34.9411 43 43 34.9411 43 25C43 15.0589 34.9411 7 25 7C15.0589 7 7 15.0589 7 25C7 34.9411 15.0589 43 25 43Z" fill="white"></path><path d="M25 0C11.2 0 0 11.2 0 25C0 38.8 11.2 50 25 50C38.8 50 50 38.8 50 25C50 11.2 38.84 0 25 0ZM38.8 14.96L25 27.18L11.2 14.96H38.8ZM9.32 16.68L18.76 25L9.33 33.32V16.68H9.32ZM11.2 35.04L20.63 26.72L24.13 29.87C24.3744 30.0647 24.6776 30.1707 24.99 30.1707C25.3024 30.1707 25.6056 30.0647 25.85 29.87L29.35 26.72L38.78 35.04H11.21H11.2ZM40.66 33.32L31.29 25L40.72 16.68V33.32H40.67H40.66Z" fill="#168DE2"></path></svg>