<svg width="50" height="50" viewBox="0 0 50 50" fill="none" xmlns="http://www.w3.org/2000/svg"><g clip-path="url(#clip0)"><path d="M25 43C34.9411 43 43 34.9411 43 25C43 15.0589 34.9411 7 25 7C15.0589 7 7 15.0589 7 25C7 34.9411 15.0589 43 25 43Z" fill="white"></path><path d="M27.33 24.18L24.21 23.48C23.01 23.21 21.65 22.85 21.65 21.73C21.65 20.61 22.61 19.83 24.35 19.83C27.83 19.83 27.51 22.23 29.25 22.23C30.16 22.23 30.95 21.69 30.95 20.77C30.95 18.61 27.51 17 24.59 17C21.42 17 18.04 18.35 18.04 21.93C18.04 23.66 18.66 25.5 22.06 26.35L26.28 27.4C27.56 27.72 27.88 28.44 27.88 29.09C27.88 30.16 26.81 31.22 24.87 31.22C21.07 31.22 21.6 28.3 19.57 28.3C18.67 28.3 18 28.93 18 29.83C18 31.57 20.12 33.91 24.87 33.91C29.38 33.91 31.62 31.73 31.62 28.81C31.62 26.93 30.75 24.94 27.33 24.18V24.18Z" fill="#00B2F0"></path><path d="M25 0C18.3696 0 12.0107 2.63392 7.32233 7.32233C2.63392 12.0107 0 18.3696 0 25C0 31.6304 2.63392 37.9893 7.32233 42.6777C12.0107 47.3661 18.3696 50 25 50C31.6304 50 37.9893 47.3661 42.6777 42.6777C47.3661 37.9893 50 31.6304 50 25C50 18.3696 47.3661 12.0107 42.6777 7.32233C37.9893 2.63392 31.6304 0 25 0V0ZM36.55 36.72C35.3341 37.9513 33.7454 38.7463 32.031 38.9814C30.3166 39.2165 28.5725 38.8785 27.07 38.02C24.9544 38.3988 22.7787 38.2612 20.7277 37.619C18.6767 36.9767 16.8111 35.8488 15.2894 34.3311C13.7677 32.8133 12.6349 30.9506 11.9874 28.9013C11.3399 26.8519 11.1967 24.6765 11.57 22.56C10.739 21.0688 10.4134 19.3484 10.642 17.6566C10.8706 15.9649 11.641 14.3926 12.838 13.1754C14.035 11.9582 15.594 11.1614 17.2818 10.9044C18.9695 10.6475 20.695 10.9441 22.2 11.75H22.21C24.3532 11.3445 26.563 11.4667 28.6484 12.1061C30.7339 12.7455 32.6324 13.8828 34.18 15.42C35.7148 16.9469 36.8539 18.8251 37.4987 20.8918C38.1434 22.9585 38.2743 25.1513 37.88 27.28C38.7179 28.7826 39.0424 30.5177 38.8041 32.2215C38.5659 33.9254 37.7779 35.5049 36.56 36.72H36.55Z" fill="#00B2F0"></path></g><defs><clipPath id="clip0"><rect width="50" height="50" fill="white"></rect></clipPath></defs></svg>