<svg width="50" height="50" viewBox="0 0 50 50" fill="none" xmlns="http://www.w3.org/2000/svg"><path d="M25 50C38.8071 50 50 38.8071 50 25C50 11.1929 38.8071 0 25 0C11.1929 0 0 11.1929 0 25C0 38.8071 11.1929 50 25 50Z" fill="#47668D"></path><path d="M39.8399 32.3501C38.9703 30.9857 37.8941 29.7645 36.6499 28.7301L36.6199 28.7001L36.5999 28.6801L36.5799 28.6701H36.5699C36.1122 28.269 35.675 27.8451 35.2599 27.4001C34.9299 26.9801 34.8599 26.5601 35.0299 26.1401C35.1599 25.8201 35.6499 25.1401 36.4899 24.1101L37.5399 22.7901C39.3999 20.4101 40.1999 18.8901 39.9599 18.2301L39.8599 18.0701C39.7899 17.9701 39.6299 17.8901 39.3599 17.8201C39.0225 17.7395 38.6726 17.7259 38.3299 17.7801L33.6799 17.8101C33.5017 17.7922 33.3217 17.8092 33.1499 17.8601L33.0599 17.9001L32.9999 17.9501C32.8498 18.0601 32.7324 18.2087 32.6599 18.3801C31.9272 20.2055 30.9806 21.9376 29.8399 23.5401C29.4584 24.149 28.9667 24.6815 28.3899 25.1101C28.1999 25.2501 28.0599 25.3101 27.9699 25.2901L27.6899 25.2201C27.5399 25.1301 27.4199 25.0001 27.3299 24.8401C27.2299 24.6801 27.1699 24.4801 27.1399 24.2401C27.0728 23.7867 27.056 23.3272 27.0899 22.8701L27.1099 22.2101C27.1038 21.4197 27.1239 20.6292 27.1699 19.8401C27.1899 19.5701 27.1899 19.2901 27.1899 18.9901C27.2181 18.577 27.1388 18.1636 26.9599 17.7901C26.8914 17.6327 26.7762 17.5001 26.6299 17.4101C26.4611 17.3164 26.2791 17.2489 26.0899 17.2101C25.5199 17.0801 24.7899 17.0101 23.9099 17.0101C21.9099 16.9801 20.6299 17.1101 20.0599 17.3701C19.8299 17.4901 19.6299 17.6401 19.4399 17.8401C19.2399 18.0701 19.2199 18.1901 19.3599 18.2101C20.0099 18.3101 20.4599 18.5301 20.7299 18.8801L20.8299 19.0701C20.9099 19.2001 20.9799 19.4401 21.0599 19.7701C21.3319 21.2006 21.3319 22.6696 21.0599 24.1001C21.0083 24.4885 20.8643 24.8589 20.6399 25.1801C20.6192 25.2121 20.592 25.2394 20.5599 25.2601C20.4199 25.3101 20.2699 25.3301 20.1199 25.3301C19.9699 25.3301 19.7899 25.2601 19.5699 25.1201C19.3235 24.9475 19.0986 24.7461 18.8999 24.5201C18.6699 24.2701 18.4099 23.9201 18.1199 23.4601C17.8199 23.0001 17.5199 22.4601 17.2199 21.8401L16.9599 21.3901C16.453 20.4536 15.9859 19.4961 15.5599 18.5201C15.4831 18.3152 15.343 18.14 15.1599 18.0201L15.0899 17.9801C14.8962 17.8646 14.6825 17.7866 14.4599 17.7501L10.0299 17.7801C9.57994 17.7801 9.26994 17.8801 9.10994 18.0801L9.04994 18.1701C9.01321 18.2446 8.996 18.3272 8.99994 18.4101C8.99994 18.5301 9.02994 18.6701 9.09994 18.8301C10.2449 21.4412 11.6098 23.9503 13.1799 26.3301C14.181 27.8114 15.2836 29.2215 16.4799 30.5501L16.8899 30.9201C17.1499 31.1701 17.5299 31.4601 18.0299 31.8101C18.5299 32.1601 19.0799 32.5001 19.6899 32.8301C21.0679 33.5631 22.6093 33.9347 24.1699 33.9101H26.0299C26.3999 33.8801 26.6899 33.7701 26.8799 33.5701L26.9499 33.4901C26.9899 33.4301 27.0299 33.3301 27.0699 33.2101C27.1099 33.0801 27.1199 32.9301 27.1199 32.7801C27.1071 32.3771 27.144 31.9741 27.2299 31.5801C27.3099 31.2201 27.3999 30.9501 27.4999 30.7701C27.6532 30.4968 27.8691 30.2637 28.1299 30.0901L28.2599 30.0301C28.5099 29.9501 28.8199 30.0301 29.1599 30.2701C29.5199 30.5201 29.8399 30.8201 30.1599 31.1701C30.4599 31.5301 30.8299 31.9301 31.2599 32.3701C31.6899 32.8201 32.0599 33.1501 32.3899 33.3701L32.7099 33.5601C32.9199 33.6801 33.2099 33.7901 33.5499 33.9001C33.8899 34.0001 34.1899 34.0301 34.4499 33.9701L38.5799 33.9101C38.9899 33.9101 39.3099 33.8501 39.5399 33.7101C39.7599 33.5901 39.8999 33.4501 39.9399 33.2901C39.9799 33.1401 39.9899 32.9601 39.9399 32.7601C39.9099 32.5601 39.8699 32.4301 39.8399 32.3601V32.3501Z" fill="white"></path></svg>